<svg width="24" height="24" viewBox="0 0 24 24" fill="none" xmlns="http://www.w3.org/2000/svg">
<rect width="24" height="24" rx="2" fill="#EB4612"/>
<path d="M12.6798 7.25096C12.8406 7.09027 13.0585 7 13.2858 7C13.5131 7 13.7311 7.09027 13.8918 7.25096L17.749 11.1082C17.9097 11.2689 18 11.4869 18 11.7142C18 11.9415 17.9097 12.1594 17.749 12.3202L13.8918 16.1774C13.7302 16.3335 13.5137 16.4199 13.2889 16.418C13.0642 16.416 12.8492 16.3259 12.6903 16.1669C12.5313 16.008 12.4412 15.793 12.4392 15.5683C12.4373 15.3435 12.5237 15.127 12.6798 14.9654L15.0001 12.5713H6.85716C6.62982 12.5713 6.4118 12.481 6.25106 12.3203C6.09031 12.1595 6 11.9415 6 11.7142C6 11.4868 6.09031 11.2688 6.25106 11.1081C6.4118 10.9473 6.62982 10.857 6.85716 10.857H15.0001L12.6798 8.46298C12.5191 8.30224 12.4289 8.08426 12.4289 7.85697C12.4289 7.62969 12.5191 7.4117 12.6798 7.25096Z" fill="white"/>
</svg>
