<svg width="24" height="24" viewBox="0 0 24 24" fill="none" xmlns="http://www.w3.org/2000/svg">
<path d="M22.2121 5.65593C21.449 5.99352 20.6397 6.2153 19.8111 6.31393C20.6842 5.79106 21.3374 4.96866 21.6491 3.99993C20.8291 4.48793 19.9301 4.82993 18.9941 5.01493C18.3647 4.34151 17.5305 3.89489 16.6211 3.74451C15.7117 3.59413 14.7781 3.74842 13.9654 4.18338C13.1527 4.61834 12.5065 5.30961 12.1272 6.14972C11.748 6.98983 11.6569 7.93171 11.8681 8.82893C10.2051 8.74572 8.57809 8.31365 7.09287 7.56079C5.60764 6.80793 4.29736 5.7511 3.24713 4.45893C2.87542 5.09738 2.68008 5.82315 2.68113 6.56193C2.68113 8.01193 3.42012 9.29293 4.54112 10.0429C3.87714 10.022 3.22777 9.84267 2.64713 9.51993V9.57093C2.64709 10.5368 2.98116 11.4729 3.59266 12.2206C4.20415 12.9682 5.05544 13.4814 6.00212 13.6729C5.38577 13.8401 4.73942 13.8648 4.11212 13.7449C4.37905 14.5763 4.89934 15.3034 5.60012 15.8243C6.30091 16.3453 7.14708 16.6339 8.02013 16.6499C7.15248 17.3314 6.15901 17.8351 5.09653 18.1323C4.03406 18.4295 2.92341 18.5143 1.82812 18.3819C3.73985 19.6113 5.96523 20.264 8.23812 20.2619C15.9321 20.2619 20.1381 13.8889 20.1381 8.36193C20.1381 8.18193 20.1341 7.99993 20.1261 7.82093C20.9445 7.22928 21.6509 6.49549 22.2121 5.65593Z" fill="white"/>
</svg>
