<svg width="20" height="20" viewBox="0 0 20 20" fill="none" xmlns="http://www.w3.org/2000/svg">
<rect width="20" height="20" rx="2" fill="url(#paint0_linear_1541_36)" style="mix-blend-mode:darken"/>
<path d="M10.6798 5.25096C10.8406 5.09027 11.0585 5 11.2858 5C11.5131 5 11.7311 5.09027 11.8918 5.25096L15.749 9.10817C15.9097 9.26891 16 9.48689 16 9.71418C16 9.94146 15.9097 10.1594 15.749 10.3202L11.8918 14.1774C11.7302 14.3335 11.5137 14.4199 11.2889 14.418C11.0642 14.416 10.8492 14.3259 10.6903 14.1669C10.5313 14.008 10.4412 13.793 10.4392 13.5683C10.4373 13.3435 10.5237 13.127 10.6798 12.9654L13.0001 10.5713H4.85716C4.62982 10.5713 4.4118 10.481 4.25106 10.3203C4.09031 10.1595 4 9.94151 4 9.71418C4 9.48684 4.09031 9.26882 4.25106 9.10807C4.4118 8.94733 4.62982 8.85702 4.85716 8.85702H13.0001L10.6798 6.46298C10.5191 6.30224 10.4289 6.08426 10.4289 5.85697C10.4289 5.62969 10.5191 5.4117 10.6798 5.25096Z" fill="white"/>
<defs>
<linearGradient id="paint0_linear_1541_36" x1="1" y1="-1.5" x2="32" y2="32.5" gradientUnits="userSpaceOnUse">
<stop offset="0.380633" stop-color="#D74B59"/>
<stop offset="0.9999" stop-color="#8B2C26" stop-opacity="0.015625"/>
<stop offset="1" stop-color="#F57009" stop-opacity="0"/>
</linearGradient>
</defs>
</svg>
